<svg width="12" height="10" viewBox="0 0 12 10" fill="none" xmlns="http://www.w3.org/2000/svg">
<path d="M11.8352 2.53407C11.6934 2.41306 11.4934 2.38756 11.3258 2.46917L8.76066 3.71792L6.35382 0.942875C6.2648 0.840219 6.13559 0.78125 5.9997 0.78125C5.86381 0.78125 5.73462 0.840219 5.64558 0.942875L3.23874 3.7179L0.673645 2.46915C0.505997 2.38756 0.305981 2.41304 0.164184 2.53405C0.0223875 2.65505 -0.0342375 2.8486 0.0199734 3.02696L1.80122 8.88634C1.86125 9.0838 2.04333 9.21875 2.2497 9.21875H9.7497C9.95604 9.21875 10.1382 9.0838 10.1982 8.88636L11.9794 3.02698C12.0336 2.84862 11.977 2.65508 11.8352 2.53407Z" fill="#F5CA48"/>
</svg>
